<svg viewBox="0 0 40 40" fill="currentColor" xmlns="http://www.w3.org/2000/svg">
<g clip-path="url(#clip0_142_135)">
<path fill-rule="evenodd" clip-rule="evenodd" d="M27.7833 21.8833C30.0667 23.4333 31.6667 25.5333 31.6667 28.3333V33.3333H38.3333V28.3333C38.3333 24.7 32.3833 22.55 27.7833 21.8833Z"/>
<path d="M14.9999 20C18.6818 20 21.6666 17.0152 21.6666 13.3333C21.6666 9.65143 18.6818 6.66666 14.9999 6.66666C11.318 6.66666 8.33325 9.65143 8.33325 13.3333C8.33325 17.0152 11.318 20 14.9999 20Z"/>
<path fill-rule="evenodd" clip-rule="evenodd" d="M25 20C28.6833 20 31.6667 17.0167 31.6667 13.3333C31.6667 9.65 28.6833 6.66666 25 6.66666C24.2167 6.66666 23.4833 6.83333 22.7833 7.06666C24.1667 8.78333 25 10.9667 25 13.3333C25 15.7 24.1667 17.8833 22.7833 19.6C23.4833 19.8333 24.2167 20 25 20Z" />
<path fill-rule="evenodd" clip-rule="evenodd" d="M15 21.6667C10.55 21.6667 1.66663 23.9 1.66663 28.3333V33.3333H28.3333V28.3333C28.3333 23.9 19.45 21.6667 15 21.6667Z" />
</g>
<defs>
<clipPath id="clip0_142_135">
<rect width="40" height="40" fill="white"/>
</clipPath>
</defs>
</svg>
