<svg width="100%" height="100%" viewBox="0 0 40 40" fill="currentColor" xmlns="http://www.w3.org/2000/svg">
<path d="M21.414 4.586C21.0389 4.21106 20.5303 4.00043 20 4.00043C19.4696 4.00043 18.961 4.21106 18.586 4.586L4.58596 18.586C4.22164 18.9632 4.02005 19.4684 4.02461 19.9928C4.02917 20.5172 4.23951 21.0188 4.61032 21.3896C4.98114 21.7605 5.48276 21.9708 6.00716 21.9753C6.53155 21.9799 7.03676 21.7783 7.41396 21.414L7.99996 20.828V34C7.99996 34.5304 8.21067 35.0391 8.58575 35.4142C8.96082 35.7893 9.46953 36 9.99996 36H14C14.5304 36 15.0391 35.7893 15.4142 35.4142C15.7892 35.0391 16 34.5304 16 34V30C16 29.4696 16.2107 28.9609 16.5857 28.5858C16.9608 28.2107 17.4695 28 18 28H22C22.5304 28 23.0391 28.2107 23.4142 28.5858C23.7892 28.9609 24 29.4696 24 30V34C24 34.5304 24.2107 35.0391 24.5857 35.4142C24.9608 35.7893 25.4695 36 26 36H30C30.5304 36 31.0391 35.7893 31.4142 35.4142C31.7892 35.0391 32 34.5304 32 34V20.828L32.586 21.414C32.9632 21.7783 33.4684 21.9799 33.9928 21.9753C34.5172 21.9708 35.0188 21.7605 35.3896 21.3896C35.7604 21.0188 35.9708 20.5172 35.9753 19.9928C35.9799 19.4684 35.7783 18.9632 35.414 18.586L21.414 4.586Z"/>
</svg>
