<svg width="100%" height="100%" viewBox="0 0 40 40" fill="none" xmlns="http://www.w3.org/2000/svg">
<path d="M19.9999 4C16.8173 4 13.7651 5.26428 11.5147 7.51472C9.26422 9.76515 7.99994 12.8174 7.99994 16V23.172L6.58594 24.586C6.30632 24.8657 6.11591 25.222 6.03877 25.6099C5.96164 25.9978 6.00124 26.3999 6.15258 26.7653C6.30392 27.1307 6.5602 27.443 6.88902 27.6628C7.21784 27.8826 7.60444 27.9999 7.99994 28H31.9999C32.3954 27.9999 32.782 27.8826 33.1109 27.6628C33.4397 27.443 33.696 27.1307 33.8473 26.7653C33.9986 26.3999 34.0382 25.9978 33.9611 25.6099C33.884 25.222 33.6936 24.8657 33.4139 24.586L31.9999 23.172V16C31.9999 12.8174 30.7357 9.76515 28.4852 7.51472C26.2348 5.26428 23.1825 4 19.9999 4ZM19.9999 36C18.4086 36 16.8825 35.3679 15.7573 34.2426C14.6321 33.1174 13.9999 31.5913 13.9999 30H25.9999C25.9999 31.5913 25.3678 33.1174 24.2426 34.2426C23.1174 35.3679 21.5912 36 19.9999 36Z" fill="#F3F4F6"/>
</svg>
