<svg width="100%" height="100%" viewBox="0 0 40 40" fill="currentColor" xmlns="http://www.w3.org/2000/svg">
<path d="M35.36 14.48H34.56C33.6763 14.48 32.96 15.1963 32.96 16.08V25.68C32.96 26.5637 33.6763 27.28 34.56 27.28H35.36C36.2436 27.28 36.96 26.5637 36.96 25.68V16.08C36.96 15.1963 36.2436 14.48 35.36 14.48Z" />
<path d="M29.36 8.8H28.56C27.6763 8.8 26.96 9.51634 26.96 10.4V29.6C26.96 30.4837 27.6763 31.2 28.56 31.2H29.36C30.2436 31.2 30.96 30.4837 30.96 29.6V10.4C30.96 9.51634 30.2436 8.8 29.36 8.8Z" />
<path d="M23.36 0.8H22.56C21.6763 0.8 20.96 1.51634 20.96 2.4V37.6C20.96 38.4837 21.6763 39.2 22.56 39.2H23.36C24.2436 39.2 24.96 38.4837 24.96 37.6V2.4C24.96 1.51634 24.2436 0.8 23.36 0.8Z" />
<path d="M17.36 11.28H16.56C15.6763 11.28 14.96 11.9963 14.96 12.88V28.88C14.96 29.7637 15.6763 30.48 16.56 30.48H17.36C18.2436 30.48 18.96 29.7637 18.96 28.88V12.88C18.96 11.9963 18.2436 11.28 17.36 11.28Z" />
<path d="M11.36 6.4H10.56C9.67631 6.4 8.95996 7.11634 8.95996 8V32C8.95996 32.8837 9.67631 33.6 10.56 33.6H11.36C12.2436 33.6 12.96 32.8837 12.96 32V8C12.96 7.11634 12.2436 6.4 11.36 6.4Z" />
<path d="M5.35996 10.4H4.55996C3.67631 10.4 2.95996 11.1163 2.95996 12V28C2.95996 28.8837 3.67631 29.6 4.55996 29.6H5.35996C6.24362 29.6 6.95996 28.8837 6.95996 28V12C6.95996 11.1163 6.24362 10.4 5.35996 10.4Z"/>
</svg>
