<svg viewBox="0 0 96 96" fill="none" xmlns="http://www.w3.org/2000/svg">
  <path
    fill-rule="evenodd"
    clip-rule="evenodd"
    d="M84 48C84 67.8823 67.8823 84 48 84C28.1177 84 12 67.8823 12 48C12 28.1177 28.1177 12 48 12C67.8823 12 84 28.1177 84 48ZM48 69C47.4477 69 47 68.5523 47 68V49H28C27.4477 49 27 48.5523 27 48C27 47.4477 27.4477 47 28 47H47V28C47 27.4477 47.4477 27 48 27C48.5523 27 49 27.4477 49 28V47H68C68.5523 47 69 47.4477 69 48C69 48.5523 68.5523 49 68 49H49V68C49 68.5523 48.5523 69 48 69Z"
    fill="#1d4ed8"
  />
</svg>
