<svg viewBox="0 0 38 38" fill="none" xmlns="http://www.w3.org/2000/svg">
  <path
    fill-rule="evenodd"
    clip-rule="evenodd"
    d="M8.35124 16.0331C7.91667 16.9779 7.91667 18.0528 7.91667 20.2026V26.9166C7.91667 29.9021 7.91667 31.3949 8.84417 32.3224C9.74983 33.2281 11.1945 33.2494 14.0417 33.2499V25.3333C14.0417 23.9066 15.1983 22.75 16.625 22.75H21.375C22.8017 22.75 23.9583 23.9066 23.9583 25.3333V33.2499C26.8055 33.2494 28.2502 33.2281 29.1558 32.3224C30.0833 31.3949 30.0833 29.9021 30.0833 26.9166V20.2026C30.0833 18.0528 30.0833 16.9779 29.6488 16.0331C29.2142 15.0883 28.3981 14.3887 26.7659 12.9897L25.1825 11.6325C22.2323 9.10375 20.7571 7.83936 19 7.83936C17.2429 7.83936 15.7677 9.10375 12.8175 11.6325L11.2342 12.9897C9.60192 14.3887 8.7858 15.0883 8.35124 16.0331ZM21.9583 33.2499V25.3333C21.9583 25.0112 21.6972 24.75 21.375 24.75H16.625C16.3028 24.75 16.0417 25.0112 16.0417 25.3333V33.2499H21.9583Z"
    fill="white"
  />
</svg>
