<svg viewBox="0 0 36 36" fill="none" xmlns="http://www.w3.org/2000/svg">
  <path
    d="M9.75372 10.4628C9.77799 10.2201 9.79012 10.0988 9.80342 9.99392C10.3 6.07631 13.5809 3.10714 17.5285 3.00279C17.6342 3 17.7561 3 18 3C18.2439 3 18.3658 3 18.4715 3.00279C22.4191 3.10714 25.7 6.07631 26.1966 9.99392C26.2099 10.0988 26.222 10.2201 26.2463 10.4628L26.6762 14.762C26.8009 16.0093 26.8633 16.6329 27.019 17.2322C27.1393 17.6954 27.301 18.1469 27.502 18.5813C27.7621 19.1432 28.1098 19.6647 28.8051 20.7076L30.9271 23.8906C31.8396 25.2593 32.2958 25.9437 32.0132 26.4719C31.7305 27 30.908 27 29.263 27H6.73703C5.09201 27 4.2695 27 3.98684 26.4719C3.70419 25.9437 4.16044 25.2593 5.07293 23.8906L7.19492 20.7076C7.89023 19.6647 8.23788 19.1432 8.49798 18.5813C8.69903 18.1469 8.86069 17.6954 8.98103 17.2322C9.13671 16.6329 9.19907 16.0093 9.3238 14.762L9.75372 10.4628Z"
    fill="white"
  />
  <path
    d="M15.1022 30.9441C15.2731 31.1036 15.6498 31.2445 16.1737 31.345C16.6976 31.4455 17.3396 31.5 18 31.5C18.6604 31.5 19.3023 31.4455 19.8263 31.345C20.3502 31.2445 20.7269 31.1036 20.8978 30.9441"
    stroke="white"
    stroke-width="2"
    stroke-linecap="round"
  />
</svg>
