<?xml version="1.0" encoding="iso-8859-1"?>
<!-- Generator: Adobe Illustrator 19.0.0, SVG Export Plug-In . SVG Version: 6.00 Build 0)  -->
<svg version="1.1" id="Layer_1" xmlns="http://www.w3.org/2000/svg" xmlns:xlink="http://www.w3.org/1999/xlink" x="0px" y="0px"
	 viewBox="0 0 512.003 512.003" style="enable-background:new 0 0 512.003 512.003;" xml:space="preserve">
<g>
	<rect x="200.177" y="454.915" style="fill:#5BACF5;" width="38.945" height="57.089"/>
	<rect x="272.881" y="454.915" style="fill:#5BACF5;" width="38.945" height="57.089"/>
</g>
<path style="fill:#E42105;" d="M424.164,370.034c-1.121-9.215-8.422-20.938-16.166-26.058l-78.021-51.579H182.026l-78.021,51.579
	c-7.744,5.12-15.045,16.843-16.166,26.058c-2.922,24.025-11.418,96.129-11.418,96.129h106.281l72.336-22.506l74.263,22.506h106.281
	C435.582,466.164,427.086,394.059,424.164,370.034z"/>
<path style="fill:#FFB367;" d="M329.301,144.268c0-59.264-28.873-111.765-73.299-144.268
	c-44.426,32.504-73.298,85.004-73.298,144.268v288.137l73.299,22.505l73.299-22.505V144.268H329.301z"/>
<rect x="182.701" y="432.409" style="fill:#3D51CC;" width="146.601" height="33.758"/>
<path style="fill:#FF7039;" d="M216.462,144.268h79.081c0-13.441-1.905-26.686-5.518-39.385h-68.045
	C218.367,117.582,216.462,130.827,216.462,144.268z"/>
<g>
</g>
<g>
</g>
<g>
</g>
<g>
</g>
<g>
</g>
<g>
</g>
<g>
</g>
<g>
</g>
<g>
</g>
<g>
</g>
<g>
</g>
<g>
</g>
<g>
</g>
<g>
</g>
<g>
</g>
</svg>
